<?xml version="1.0" encoding="UTF-8"?>
<svg width="120" height="120" viewBox="0 0 120 120" fill="none" xmlns="http://www.w3.org/2000/svg">
    <g>
        <!-- Building base -->
        <rect x="30" y="40" width="60" height="60" fill="#E8F2FF" rx="4"/>
        
        <!-- Windows -->
        <rect x="40" y="50" width="15" height="20" fill="#0B74FF" rx="2"/>
        <rect x="65" y="50" width="15" height="20" fill="#0B74FF" rx="2"/>
        
        <!-- Door -->
        <rect x="50" y="80" width="20" height="20" fill="#0B74FF" rx="2"/>
        
        <!-- Shield -->
        <path d="M60 20L80 30V45C80 60 72 70 60 75C48 70 40 60 40 45V30L60 20Z" fill="#0B74FF"/>
        
        <!-- Clouds -->
        <circle cx="20" cy="35" r="8" fill="#E8F2FF"/>
        <circle cx="30" cy="30" r="10" fill="#E8F2FF"/>
        <circle cx="90" cy="35" r="8" fill="#E8F2FF"/>
        <circle cx="100" cy="30" r="10" fill="#E8F2FF"/>
        
        <!-- Trees -->
        <path d="M15 90L20 80L25 90H15Z" fill="#E8F2FF"/>
        <rect x="19" y="90" width="2" height="5" fill="#E8F2FF"/>
        
        <path d="M95 90L100 80L105 90H95Z" fill="#E8F2FF"/>
        <rect x="99" y="90" width="2" height="5" fill="#E8F2FF"/>
    </g>
</svg>